<?xml version="1.0" encoding="UTF-8"?>
<svg version="1.1" xmlns="http://www.w3.org/2000/svg" width="1000" height="1000">
<path d="M0 0 C1.41152344 1.34964844 1.41152344 1.34964844 2.8515625 2.7265625 C8.72549239 8.45500806 13.93212104 14.55393708 19 21 C20.16982422 22.44439453 20.16982422 22.44439453 21.36328125 23.91796875 C65.7804667 79.8113648 83.28374091 153.81684712 75.47167969 224.13012695 C67.97504811 284.93205548 42.23293678 338.76490918 0 383 C-0.94939453 384.01126953 -0.94939453 384.01126953 -1.91796875 385.04296875 C-6.0162407 389.2969945 -10.52243354 392.98778291 -15.125 396.68359375 C-16.9759966 398.17495378 -18.81090849 399.68661746 -20.625 401.22265625 C-57.28996823 432.15872319 -105.67239313 451.16039263 -153 457 C-154.08498779 457.14139404 -154.08498779 457.14139404 -155.19189453 457.28564453 C-224.17733101 465.3346654 -289.75396158 438.35122629 -343.25 396.4375 C-353.62416149 388.21037733 -363.62964564 379.59918716 -373.31347656 370.56884766 C-375.20015029 368.81381503 -377.09627692 367.06926709 -378.9921875 365.32421875 C-385.66063435 359.16034377 -392.14884981 353.00368523 -398.109375 346.14453125 C-399.938006 344.07031964 -401.83916989 342.12351925 -403.8125 340.1875 C-406.43567384 337.61312939 -408.77663867 334.93483695 -411 332 C-414.92558833 333.56480825 -417.09551997 336.05741687 -419.875 339.1875 C-420.85354859 340.27529591 -421.83274646 341.36250799 -422.8125 342.44921875 C-423.32941406 343.02591309 -423.84632813 343.60260742 -424.37890625 344.19677734 C-433.01754808 353.80596538 -441.86163729 363.01730039 -451.49023438 371.63867188 C-452.92944182 372.93637897 -454.34813216 374.25673337 -455.765625 375.578125 C-462.25656488 381.61356032 -469.0488388 387.12260219 -476.07275391 392.51416016 C-478.08284849 394.06387331 -480.07895567 395.63046734 -482.07421875 397.19921875 C-495.99817027 408.08462949 -510.57783547 417.52364297 -526.10302734 425.95898438 C-527.90009832 426.94517622 -529.67921184 427.96388657 -531.45703125 428.984375 C-585.46496235 459.29185598 -650.58463766 466.59437418 -710 450 C-724.21602396 445.87895626 -737.69636844 440.46316677 -751 434 C-751.83466797 433.5982959 -752.66933594 433.1965918 -753.52929688 432.78271484 C-780.15241926 419.83326892 -803.69758927 402.4428649 -825 382 C-825.89460937 381.14664062 -826.78921875 380.29328125 -827.7109375 379.4140625 C-833.63306321 373.63771219 -838.89025851 367.49930974 -844 361 C-844.77988281 360.03707031 -845.55976562 359.07414062 -846.36328125 358.08203125 C-873.49468567 323.94059889 -891.24851473 282.01727594 -898 239 C-898.14953125 238.0497998 -898.2990625 237.09959961 -898.453125 236.12060547 C-902.78058771 207.1760354 -902.76721615 176.87544114 -898 148 C-897.83371094 146.98260742 -897.66742187 145.96521484 -897.49609375 144.91699219 C-888.73432299 93.20631923 -866.19321927 41.77825084 -829.546875 3.6640625 C-827.51555274 1.5392745 -825.61090591 -0.6038944 -823.75 -2.875 C-821.14862189 -5.96035544 -818.23664542 -8.53957874 -815.16015625 -11.14453125 C-813.72219988 -12.37966556 -812.31251018 -13.64850174 -810.93359375 -14.94921875 C-797.26201313 -27.81239286 -781.5617945 -38.25550039 -765 -47 C-763.69385742 -47.69005127 -763.69385742 -47.69005127 -762.36132812 -48.39404297 C-706.34255307 -77.5193824 -637.01863704 -84.80309163 -576.36914062 -66.55639648 C-571.87707508 -65.13404228 -567.43161811 -63.60005177 -563 -62 C-562.15775879 -61.69723145 -561.31551758 -61.39446289 -560.44775391 -61.08251953 C-528.16989172 -49.27750856 -499.08905018 -30.18143914 -473 -8 C-472.47132324 -7.55479004 -471.94264648 -7.10958008 -471.39794922 -6.65087891 C-458.5024944 4.20980463 -446.23523966 15.59487834 -434.3918457 27.59228516 C-433.13426192 28.86420729 -431.87024202 30.12975798 -430.60546875 31.39453125 C-428.49792122 33.50207878 -426.39784253 35.61642244 -424.30078125 37.734375 C-422.97139924 39.07296143 -421.64197129 40.41150224 -420.3125 41.75 C-419.63638672 42.43449219 -418.96027344 43.11898437 -418.26367188 43.82421875 C-417.61591797 44.47519531 -416.96816406 45.12617188 -416.30078125 45.796875 C-415.42160034 46.68391113 -415.42160034 46.68391113 -414.5246582 47.58886719 C-413.03618182 49.09829824 -413.03618182 49.09829824 -411 50 C-410.72430176 49.4028418 -410.44860352 48.80568359 -410.16455078 48.19042969 C-409.05777966 46.10867905 -407.96997184 44.66416807 -406.3671875 42.953125 C-405.5464978 42.07418579 -405.5464978 42.07418579 -404.70922852 41.17749023 C-404.10393311 40.54141846 -403.4986377 39.90534668 -402.875 39.25 C-401.91581665 38.23498413 -401.91581665 38.23498413 -400.93725586 37.19946289 C-394.57541836 30.51743086 -388.07644381 23.97069586 -381.5625 17.4375 C-381.04903015 16.92135132 -380.5355603 16.40520264 -380.00653076 15.87341309 C-374.18642526 10.03029954 -368.31355085 4.31523666 -362 -1 C-361.36682861 -1.53987549 -360.73365723 -2.07975098 -360.08129883 -2.63598633 C-315.5005485 -40.45784581 -261.28394706 -71.14692271 -202 -76 C-201.25782227 -76.06171387 -200.51564453 -76.12342773 -199.75097656 -76.18701172 C-125.29302437 -81.97477419 -53.09085193 -51.23992159 0 0 Z M-819.21875 17.28125 C-860.11269864 60.25730899 -886.88904927 118.99927394 -887.203125 178.79296875 C-887.21018463 179.69341919 -887.21724426 180.59386963 -887.22451782 181.52160645 C-887.53329535 208.90921589 -887.53329535 208.90921589 -884 236 C-883.69400879 237.49055908 -883.69400879 237.49055908 -883.38183594 239.01123047 C-873.76645614 284.47784076 -853.4794473 327.26835937 -821.5078125 361.3046875 C-819.4931367 363.46999326 -817.57858159 365.66630151 -815.6875 367.9375 C-776.53032793 412.74145102 -714.45668697 439.05326484 -656 443 C-596.99032714 445.73891966 -535.90307419 425.44739553 -491.91821289 385.47851562 C-484.91356005 379.0079509 -477.97919876 372.4504104 -471.72265625 365.24609375 C-468.02643432 360.99691702 -464.18920575 356.89674225 -460.3125 352.8125 C-454.43930793 346.62096309 -454.43930793 346.62096309 -448.6796875 340.32421875 C-438.55914495 329.05556786 -426.64660593 316.50141498 -411 314 C-406.67825914 314.43854409 -404.60967767 315.83079204 -401.47021484 318.77490234 C-400.16053741 320.00161652 -400.16053741 320.00161652 -398.82440186 321.25311279 C-394.2181086 325.73298806 -389.68267733 330.27723524 -385.18303299 334.86406326 C-382.81393395 337.27623962 -380.43461733 339.67823994 -378.05605125 342.08107567 C-373.65739601 346.52484182 -369.26260918 350.97225262 -364.88525391 355.43701172 C-350.70795712 369.88846743 -336.81197766 383.57946274 -320 395 C-318.62265332 395.96090677 -317.24631142 396.92325576 -315.87109375 397.88720703 C-306.67446255 404.32336636 -296.93626777 409.79819111 -287 415 C-286.21979492 415.4125 -285.43958984 415.825 -284.63574219 416.25 C-251.66807989 433.46689422 -214.94529059 442.47711569 -177.8125 442.3125 C-176.95593811 442.31067719 -176.09937622 442.30885437 -175.21685791 442.30697632 C-162.25950817 442.26061918 -149.70816318 441.71882013 -137 439 C-136.15453613 438.82839355 -135.30907227 438.65678711 -134.43798828 438.47998047 C-77.61225279 426.77594991 -24.66295102 392.67138132 11 347 C11.77730469 346.03964844 12.55460938 345.07929687 13.35546875 344.08984375 C52.63838693 294.68954442 69.69610236 231.16726495 62.75 168.65234375 C56.38235668 117.91689355 36.25937178 69.69138022 4 30 C3.28408691 29.11054688 3.28408691 29.11054688 2.55371094 28.203125 C-9.06963555 13.85770223 -22.21470221 0.09950418 -37 -11 C-37.53592773 -11.41233887 -38.07185547 -11.82467773 -38.62402344 -12.24951172 C-70.83399619 -37.01600338 -107.79163211 -53.01264396 -148 -59 C-149.00595215 -59.15577515 -149.00595215 -59.15577515 -150.03222656 -59.31469727 C-215.80421028 -68.11863388 -281.13514895 -41.77202038 -333 -3 C-337.84316417 0.74392444 -342.56791445 4.62552522 -347.26171875 8.55419922 C-348.89051734 9.90893872 -350.53377333 11.24227938 -352.1875 12.56640625 C-359.46669315 18.41151923 -365.8279233 24.57810265 -371.921875 31.6328125 C-376.50581949 36.85437333 -381.25194387 41.92798623 -386 47 C-386.71414063 47.76957031 -387.42828125 48.53914063 -388.1640625 49.33203125 C-395.38173196 56.86157531 -404.58713295 65.36801515 -415.38769531 66.28881836 C-425.45057127 65.48425076 -435.5167222 51.75987864 -442.40820312 44.79760742 C-444.25594598 42.93149491 -446.11167965 41.07362288 -447.96875 39.21679688 C-453.26382793 33.90562677 -458.4800692 28.5901815 -463.34863281 22.88061523 C-472.84379212 12.0673077 -483.4303 1.58047363 -495 -7 C-495.64759277 -7.48629883 -496.29518555 -7.97259766 -496.96240234 -8.47363281 C-506.95293843 -15.95363445 -517.09254218 -22.9291825 -528 -29 C-528.76618652 -29.43022461 -529.53237305 -29.86044922 -530.32177734 -30.30371094 C-566.25204859 -50.30993587 -604.95572148 -60.25605133 -646.0625 -60.1875 C-646.79121307 -60.18656342 -647.51992615 -60.18562683 -648.27072144 -60.18466187 C-714.70499611 -60.00002368 -773.43872217 -29.85858064 -819.21875 17.28125 Z " fill="#43D4A0" transform="translate(911,300)"/>
<path d="M0 0 C6.69816228 5.99685897 13.02234164 12.38113245 19.35058594 18.76318359 C21.59735736 21.02843175 23.85224974 23.2853546 26.10839844 25.54125977 C27.56720732 27.00497868 29.0255575 28.46915492 30.48339844 29.93383789 C31.14392212 30.5954744 31.8044458 31.2571109 32.48498535 31.938797 C36.3260243 35.81862473 39.99529787 39.80396185 43.56071472 43.93881226 C46.36126695 47.18317061 49.27117766 50.32997422 52.15917969 53.49633789 C56.10139552 58.01663833 56.10139552 58.01663833 55.95214844 62.19555664 C55.07714844 65.69555664 55.07714844 65.69555664 53.45214844 67.63305664 C49.92021686 69.21313129 47.92786369 69.33734252 44.07714844 68.69555664 C41.02641914 66.75837648 38.61368326 64.25358752 36.07714844 61.69555664 C35.10165046 60.74264275 34.12501629 59.79089108 33.14746094 58.84008789 C28.18657805 53.97268995 23.44549057 49.01301196 18.8918457 43.75976562 C15.87214016 40.32486581 12.72366046 37.0139749 9.57714844 33.69555664 C8.16929723 32.20755835 6.7617528 30.71926975 5.35449219 29.23071289 C4.64534668 28.48063965 3.93620117 27.73056641 3.20556641 26.95776367 C1.13218052 24.75404796 -0.92711597 22.53812857 -2.98144531 20.31665039 C-19.73352133 2.21538585 -38.22986285 -11.55013431 -59.92285156 -23.30444336 C-60.60025391 -23.67408203 -61.27765625 -24.0437207 -61.97558594 -24.42456055 C-80.24545364 -34.28665331 -99.70130254 -40.78674632 -119.92285156 -45.30444336 C-121.07696533 -45.57345459 -121.07696533 -45.57345459 -122.25439453 -45.84790039 C-147.71147385 -51.54842938 -177.7055118 -50.29558403 -202.92285156 -44.30444336 C-203.82632324 -44.10077148 -204.72979492 -43.89709961 -205.66064453 -43.68725586 C-242.28272823 -35.2853758 -275.8996529 -16.5237834 -303.16894531 9.15258789 C-305.10673888 10.94195472 -307.0351234 12.63447114 -309.07128906 14.30102539 C-311.32375111 16.19247639 -313.22040982 17.96613474 -315.11035156 20.19555664 C-315.696875 20.88649414 -316.28339844 21.57743164 -316.88769531 22.28930664 C-317.55929687 23.08336914 -318.23089844 23.87743164 -318.92285156 24.69555664 C-319.74914062 25.63399414 -320.57542969 26.57243164 -321.42675781 27.53930664 C-359.39327659 70.92569348 -379.02448573 128.3544172 -375.64941406 185.85961914 C-371.80661772 240.37150441 -348.67816616 292.30751137 -310.92285156 331.69555664 C-310.42027832 332.22536133 -309.91770508 332.75516602 -309.39990234 333.30102539 C-271.77806062 372.78695961 -218.22384838 395.18719562 -163.92285156 396.69555664 C-114.23365219 397.33588137 -63.14435189 380.81591364 -26.76757812 346.41235352 C-25.38203889 345.12289985 -23.9800995 343.85103238 -22.5703125 342.58813477 C-12.39146493 333.42538931 -2.81653093 323.66467549 6.82714844 313.94555664 C10.27730436 310.46863062 13.73088823 306.99516104 17.18652344 303.52368164 C18.34773712 302.35002045 18.34773712 302.35002045 19.53240967 301.15264893 C24.21282259 296.45138501 29.04408203 292.01477877 34.07714844 287.69555664 C36.71800666 285.3109542 39.34830094 282.91540188 41.97558594 280.51586914 C44.56948779 278.26910657 45.57016098 277.73870451 49.01464844 277.44555664 C52.07714844 277.69555664 52.07714844 277.69555664 54.01464844 278.69555664 C55.40994556 281.32199828 55.33250482 283.39257862 54.82324219 286.28540039 C46.92401745 311.80279131 18.53141943 337.78029523 -1.92285156 353.69555664 C-3.36144531 354.85958008 -3.36144531 354.85958008 -4.82910156 356.04711914 C-39.8179412 383.87915067 -82.85514389 401.8769301 -126.92285156 408.69555664 C-127.64553223 408.8127002 -128.36821289 408.92984375 -129.11279297 409.05053711 C-187.25879064 418.10264362 -246.52697704 402.69773396 -293.9453125 368.4609375 C-307.58274973 358.38341815 -321.18636123 346.83737068 -331.92285156 333.69555664 C-332.88437692 332.56864476 -333.84669664 331.44241044 -334.80957031 330.31665039 C-375.6796179 281.9696975 -393.16812667 218.0575605 -388.42285156 155.44165039 C-383.55177191 99.87744381 -362.94165804 46.33942263 -324.43066406 5.41430664 C-322.6554543 3.48978017 -320.97588608 1.57244345 -319.32128906 -0.44897461 C-316.17537281 -4.19435698 -312.64567692 -7.15156195 -308.92285156 -10.30444336 C-307.55 -11.52647461 -307.55 -11.52647461 -306.14941406 -12.77319336 C-273.15117488 -41.90965314 -232.12932974 -57.42769252 -188.92285156 -63.30444336 C-188.18059326 -63.40901855 -187.43833496 -63.51359375 -186.67358398 -63.62133789 C-115.89138495 -72.19031445 -52.53152968 -46.21320621 0 0 Z " fill="#43D4A0" transform="translate(425.9228515625,317.304443359375)"/>
<path d="M0 0 C1.28607399 -0.01058945 1.28607399 -0.01058945 2.59812927 -0.02139282 C38.86040499 -0.25206653 38.86040499 -0.25206653 55.7421875 3.203125 C56.74411133 3.40711914 57.74603516 3.61111328 58.77832031 3.82128906 C101.38813801 12.7814803 139.31180153 31.99915155 170.7421875 62.203125 C171.33676758 62.77047363 171.93134766 63.33782227 172.54394531 63.92236328 C180.90662003 71.94216402 188.59850276 80.17309327 195.48339844 89.5 C196.71288146 91.16347431 197.96434962 92.80840052 199.21875 94.453125 C237.92229201 146.0322704 253.63873632 214.34415641 244.78125 277.85546875 C237.86487246 322.23441208 219.46434073 364.05588928 188.69921875 397.09375 C186.91302669 399.01898696 185.23456826 400.99810072 183.5546875 403.015625 C147.79838725 443.76307929 90.63002839 472.90323804 36.7421875 477.203125 C17.45418069 478.24182299 -2.31813995 478.29338292 -21.2578125 474.203125 C-22.18207031 474.00976562 -23.10632813 473.81640625 -24.05859375 473.6171875 C-75.36596387 462.60818888 -118.37070612 434.55860446 -156.2578125 399.203125 C-156.9075 398.59855469 -157.5571875 397.99398438 -158.2265625 397.37109375 C-160.34317035 395.40059503 -162.4572846 393.42746183 -164.5703125 391.453125 C-165.22813721 390.83920898 -165.88596191 390.22529297 -166.5637207 389.59277344 C-173.49262338 383.09720074 -180.13365085 376.46819043 -186.2578125 369.203125 C-187.26908203 368.00816406 -187.26908203 368.00816406 -188.30078125 366.7890625 C-198.76031573 354.11202822 -198.76031573 354.11202822 -199.6953125 346.765625 C-199.2578125 344.203125 -199.2578125 344.203125 -197.2578125 342.203125 C-194.2820858 341.52118763 -193.10943204 341.34922044 -190.2578125 342.203125 C-187.19440915 344.43012174 -184.54920142 346.98973994 -181.86791992 349.65600586 C-179.8184603 351.6252895 -177.69453875 353.50226212 -175.5703125 355.390625 C-170.22746104 360.17900622 -165.1308682 365.18173084 -160.0703125 370.265625 C-159.22017578 371.11189453 -158.37003906 371.95816406 -157.49414062 372.83007812 C-153.1764772 377.15440976 -149.0314633 381.55002085 -145.04760742 386.18188477 C-106.2452754 430.00189661 -52.63011287 457.21151297 5.87890625 461.0546875 C64.28990529 463.29899282 118.94157737 440.55544077 161.46655273 401.21899414 C162.89596643 399.88485913 164.31922932 398.54414317 165.7421875 397.203125 C166.474375 396.51347656 167.2065625 395.82382812 167.9609375 395.11328125 C173.37262053 389.86266022 178.0642109 384.10721566 182.7421875 378.203125 C183.91587891 376.77226563 183.91587891 376.77226563 185.11328125 375.3125 C220.51538612 331.13067313 235.99897974 272.69330721 230.5234375 216.73828125 C224.0643777 159.23375288 197.32373422 102.16068912 151.89746094 65.12695312 C106.6361331 29.2575438 50.29933519 10.93210024 -7.4987793 17.02783203 C-57.24801345 23.02599527 -100.54742376 44.56170772 -135.9453125 79.765625 C-137.01495239 80.82813477 -137.01495239 80.82813477 -138.10620117 81.91210938 C-142.12970184 85.94823462 -145.95788071 90.09028038 -149.67895508 94.40600586 C-151.76733449 96.78308346 -153.99138774 98.99634299 -156.2578125 101.203125 C-159.10644257 104.01769074 -161.86310562 106.83047752 -164.4453125 109.890625 C-168.04696203 114.07679045 -171.88666339 118.01791989 -175.7578125 121.953125 C-176.3871167 122.60369873 -177.0164209 123.25427246 -177.66479492 123.92456055 C-182.5285806 128.82382519 -186.98691704 132.93934311 -194.1328125 133.515625 C-197.2578125 133.203125 -197.2578125 133.203125 -198.2578125 132.203125 C-199.35405141 121.89847926 -193.90909023 114.11507654 -187.76953125 106.3046875 C-186.94066406 105.28117187 -186.11179687 104.25765625 -185.2578125 103.203125 C-184.50113281 102.24148438 -183.74445312 101.27984375 -182.96484375 100.2890625 C-176.98417121 92.92969756 -170.43916248 86.17860154 -163.7578125 79.453125 C-162.89188477 78.57793213 -162.02595703 77.70273926 -161.13378906 76.80102539 C-155.1507117 70.8466587 -148.88057746 65.43228207 -142.2578125 60.203125 C-141.53625977 59.62755859 -140.81470703 59.05199219 -140.07128906 58.45898438 C-100.83270399 27.36569625 -51.22664991 0.28206979 0 0 Z " fill="#43D4A0" transform="translate(715.2578125,252.796875)"/>
<path d="M0 0 C1.47919922 1.29744141 1.47919922 1.29744141 2.98828125 2.62109375 C39.57263126 35.1469857 57.92952293 79.56075216 66 127 C66.20133545 128.17852539 66.20133545 128.17852539 66.40673828 129.38085938 C75.71805253 187.47507881 61.67776398 253.79457007 28.05078125 302.1796875 C20.8956515 312.01969452 13.39054689 321.18928915 5 330 C4.01966797 331.05960938 4.01966797 331.05960938 3.01953125 332.140625 C-17.64765214 353.82133764 -46.68518365 368.72889988 -75.5625 375.75 C-76.37614014 375.94875732 -77.18978027 376.14751465 -78.02807617 376.35229492 C-91.7300032 379.50450829 -105.25137498 380.40992865 -119.25 380.375 C-120.07671204 380.37445618 -120.90342407 380.37391235 -121.75518799 380.37335205 C-149.7820797 380.28917508 -179.48246686 376.18455898 -205 364 C-206.12825195 363.46560303 -206.12825195 363.46560303 -207.27929688 362.92041016 C-233.49517069 350.29737307 -257.83700532 332.78108586 -280 314 C-281.03457152 313.15032919 -282.06976223 312.30141194 -283.10546875 311.453125 C-323.48769161 278.03253991 -323.48769161 278.03253991 -325.265625 262.7109375 C-325.26046875 261.94007813 -325.2553125 261.16921875 -325.25 260.375 C-325.25515625 259.59898437 -325.2603125 258.82296875 -325.265625 258.0234375 C-325 256 -325 256 -323 254 C-317.67535058 253.48801448 -314.59048571 254.36802387 -310 257 C-307.59399414 259.04956055 -307.59399414 259.04956055 -305.28515625 261.38671875 C-304.00801758 262.6715918 -304.00801758 262.6715918 -302.70507812 263.98242188 C-301.83302734 264.87509766 -300.96097656 265.76777344 -300.0625 266.6875 C-299.19431641 267.56083984 -298.32613281 268.43417969 -297.43164062 269.33398438 C-293.00749023 273.81163923 -288.72582533 278.36353384 -284.62036133 283.13452148 C-281.34805957 286.90183469 -277.89625226 290.50519753 -274.47631836 294.13793945 C-271.59514971 297.20447949 -268.73341076 300.27891908 -265.953125 303.4375 C-253.60841579 317.39437587 -238.98677653 327.56319771 -223 337 C-222.30181152 337.41378906 -221.60362305 337.82757812 -220.88427734 338.25390625 C-202.4022026 349.03622855 -181.96992327 356.00023878 -161 360 C-159.71996094 360.24492188 -158.43992187 360.48984375 -157.12109375 360.7421875 C-110.74644234 367.92214413 -61.3679842 354.81181206 -23.64355469 327.27490234 C-21.75230411 325.86266448 -19.87488062 324.43385637 -18 323 C-17.06929687 322.31164062 -16.13859375 321.62328125 -15.1796875 320.9140625 C-0.0966128 309.24428299 13.43526477 294.85857794 24 279 C24.4630957 278.30616211 24.92619141 277.61232422 25.40332031 276.89746094 C46.46208382 244.86666076 58.52229035 208.31375303 58.3125 169.875 C58.31034485 169.15733459 58.3081897 168.43966919 58.30596924 167.70025635 C58.24798615 155.59921883 57.5273135 143.85875502 55 132 C54.71793701 130.66146973 54.71793701 130.66146973 54.43017578 129.29589844 C46.27569387 92.04606939 28.24038885 57.65070291 2 30 C1.55430664 29.5270752 1.10861328 29.05415039 0.64941406 28.56689453 C-30.02566307 -3.78194281 -74.28734872 -23.78204637 -118.7644043 -26.20507812 C-122.55387352 -26.30195884 -126.33435485 -26.32908347 -130.125 -26.3125 C-130.79398315 -26.31067719 -131.46296631 -26.30885437 -132.15222168 -26.30697632 C-163.63531172 -26.16363366 -193.3206127 -17.85861177 -221 -3 C-222.134375 -2.40832031 -223.26875 -1.81664062 -224.4375 -1.20703125 C-247.08295475 11.08546676 -264.65223898 28.33830914 -281.12011719 47.86914062 C-286.19659372 53.8689395 -291.41102629 59.73262319 -296.75 65.5 C-297.35134766 66.15806641 -297.95269531 66.81613281 -298.57226562 67.49414062 C-304.28968941 73.61147165 -310.94099142 80.37871824 -319.5625 81.4375 C-323 81 -323 81 -325.0625 79.0625 C-326.47865403 74.43639682 -325.85721433 71.42242977 -324 67 C-318.51796566 59.18970343 -311.70383497 52.41260909 -304.93383789 45.72802734 C-303.42984161 44.24243532 -301.93415095 42.74884795 -300.43945312 41.25390625 C-295.66221332 36.49467297 -290.835165 31.83986536 -285.68969727 27.47753906 C-283.87613096 25.89168394 -282.18652084 24.21967359 -280.5 22.5 C-277.53057364 19.48375836 -274.42322001 16.69633409 -271.21484375 13.9375 C-268.69939336 11.73703546 -266.26114948 9.4620075 -263.8125 7.1875 C-238.27752634 -15.96887338 -205.78430568 -32.90632687 -172 -40 C-171.24283691 -40.16371094 -170.48567383 -40.32742188 -169.70556641 -40.49609375 C-112.54238041 -52.18719116 -44.28127305 -39.17944248 0 0 Z " fill="#43D4A0" transform="translate(862,323)"/>
<path d="M0 0 C1.21405518 0.00081573 1.21405518 0.00081573 2.45263672 0.00164795 C16.32232482 0.04429977 29.59888601 1.11981432 43.125 4.375 C44.02025391 4.58930664 44.91550781 4.80361328 45.83789062 5.02441406 C73.16395574 11.79190027 99.32815364 23.8438811 122.125 40.375 C122.76985352 40.83874023 123.41470703 41.30248047 124.07910156 41.78027344 C138.41376917 52.14193322 151.39920478 63.47624193 163.9375 75.9375 C164.42582306 76.42046539 164.91414612 76.90343079 165.41726685 77.40103149 C172.11666923 84.04460435 178.2714953 90.97316235 184.125 98.375 C184.75784912 99.15383545 185.39069824 99.9326709 186.04272461 100.73510742 C187.77763739 102.87083597 189.4851306 105.02579306 191.1875 107.1875 C191.76693359 107.89841797 192.34636719 108.60933594 192.94335938 109.34179688 C195.49489554 112.60426874 197.01965243 114.56514059 197.5625 118.73828125 C197.0365896 121.90783051 196.60474933 123.29521024 194.125 125.375 C190.9375 126.0625 190.9375 126.0625 187.125 125.375 C179.99794459 120.47935876 174.05085352 113.41901977 167.96751404 107.29267883 C166.11884125 105.43107968 164.26692039 103.57276496 162.41418457 101.71520996 C157.81619592 97.10395087 153.22370561 92.48722852 148.63104248 87.8706665 C144.73864425 83.95844018 140.84413721 80.0483357 136.94688416 76.14094543 C135.13474195 74.32238709 133.32567157 72.50081204 131.51672363 70.67907715 C100.32978259 39.35313283 58.29012938 17.46306786 13.171875 17.171875 C12.43832291 17.16477005 11.70477081 17.1576651 10.94898987 17.15034485 C-12.1275358 16.91451533 -12.1275358 16.91451533 -34.875 20.375 C-35.83341797 20.60074707 -36.79183594 20.82649414 -37.77929688 21.05908203 C-86.23128123 32.85271476 -129.33537749 62.09591568 -155.49121094 105.02783203 C-169.43269894 128.85983679 -179.14808954 154.1539044 -183.875 181.375 C-183.99359375 182.05675293 -184.1121875 182.73850586 -184.234375 183.44091797 C-190.76774978 223.11755853 -182.98990553 266.16626631 -163.92089844 301.43945312 C-162.85938143 303.40390383 -161.82452514 305.38109129 -160.7890625 307.359375 C-137.52139029 351.00683129 -96.22147755 384.33973956 -49.38720703 399.64257812 C-45.91356116 400.69116232 -42.40841033 401.55383359 -38.875 402.375 C-38.08383789 402.56819824 -37.29267578 402.76139648 -36.47753906 402.96044922 C-13.01804525 408.50188384 14.63870331 409.15696156 38.125 403.375 C38.94500488 403.17632324 39.76500977 402.97764648 40.60986328 402.77294922 C64.72169767 396.75738224 90.49639945 387.34396159 109.125 370.375 C109.93710937 369.65699219 110.74921875 368.93898438 111.5859375 368.19921875 C113.16935295 366.78876099 114.74610456 365.37074209 116.3125 363.94140625 C117.91546326 362.47870227 119.52498311 361.02293425 121.15388489 359.58917236 C127.61544493 353.86932997 133.72718667 347.87002655 139.78372765 341.73030663 C141.49284316 339.9987721 143.20623076 338.27156771 144.92085266 336.54548645 C149.78767391 331.64542354 154.64998648 326.74094995 159.50219727 321.82641602 C162.4898313 318.80101644 165.48483465 315.78307975 168.48459816 312.76970863 C169.61761604 311.62868235 170.7478606 310.48489476 171.87515831 309.33821678 C173.45110912 307.73560921 175.03629839 306.14268958 176.6237793 304.55151367 C177.51961227 303.64600266 178.41544525 302.74049164 179.33842468 301.80754089 C183.08320367 298.53853611 186.89889739 295.67181368 191.9375 295 C194.125 295.375 194.125 295.375 196.125 297.375 C197.60914865 304.62389444 194.94387707 310.36651847 191.125 316.375 C184.59037079 325.75284996 177.02152974 334.13501844 169.125 342.375 C168.05958984 343.50228516 168.05958984 343.50228516 166.97265625 344.65234375 C162.61089044 349.15682582 157.90950602 353.11905537 153.01953125 357.0390625 C150.15452899 359.35116959 147.36091335 361.73299522 144.5625 364.125 C131.28399914 375.17613942 117.03164404 384.67864093 102.125 393.375 C101.40908691 393.7987793 100.69317383 394.22255859 99.95556641 394.65917969 C55.09494496 421.10996985 4.84767409 428.39513807 -45.9375 416.1875 C-77.45411375 407.99461997 -105.64421113 393.07421391 -129.875 371.375 C-130.72070557 370.62186523 -130.72070557 370.62186523 -131.58349609 369.85351562 C-133.3134288 368.3065239 -135.03385966 366.74977093 -136.75 365.1875 C-137.26135498 364.72480713 -137.77270996 364.26211426 -138.29956055 363.78540039 C-176.45282621 328.52844103 -198.61241731 274.05968391 -201.75 222.8125 C-203.91645123 163.23509106 -184.69437658 109.84150138 -144.29956055 65.9934082 C-106.73411276 26.00106941 -55.360139 -0.14070276 0 0 Z " fill="#43D4A0" transform="translate(263.875,279.625)"/>
<path d="M0 0 C2.03634392 1.75624159 4.05428114 3.52485179 6.0625 5.3125 C7.1297229 6.24944702 7.1297229 6.24944702 8.21850586 7.20532227 C14.74708353 12.99268696 20.95902633 19.05464669 27.11352539 25.2331543 C28.75489796 26.87991404 30.40158819 28.52122095 32.04882812 30.16210938 C37.09200096 35.20248229 42.03641257 40.27936317 46.66918945 45.70532227 C48.44409542 47.75266868 50.35202823 49.6311763 52.3125 51.5 C56.28034332 55.45246408 58.83308483 58.13305585 59.4375 63.875 C59.0625 67.3125 59.0625 67.3125 58.0625 69.75 C55.53033528 71.72825369 53.41763039 72.05887348 50.23046875 71.87890625 C45.85719495 70.73633922 43.13928786 67.46267913 40.0625 64.3125 C39.26714844 63.55195313 38.47179687 62.79140625 37.65234375 62.0078125 C33.46349437 57.95492268 29.5695313 53.80906405 25.9375 49.25 C21.84056269 44.1215124 17.4425777 39.33516014 12.9375 34.5625 C12.26831543 33.85343506 11.59913086 33.14437012 10.90966797 32.41381836 C8.97009763 30.37069266 7.01915943 28.33925548 5.0625 26.3125 C4.47887695 25.70188721 3.89525391 25.09127441 3.29394531 24.4621582 C-0.83050184 20.22496059 -5.21552237 16.55298688 -9.9375 13 C-11.0527002 12.15816162 -11.0527002 12.15816162 -12.19042969 11.29931641 C-50.05626478 -17.04766998 -93.92466419 -33.85261359 -141.55981445 -27.16821289 C-166.93243197 -23.182189 -190.69911947 -12.39847984 -210.9375 3.3125 C-211.81792969 3.98796875 -212.69835937 4.6634375 -213.60546875 5.359375 C-249.82655986 34.00173853 -272.44948749 77.35561983 -277.97290039 122.95288086 C-281.16166182 152.98342795 -276.19388801 183.17781936 -262.9375 210.3125 C-262.42678955 211.36268311 -262.42678955 211.36268311 -261.90576172 212.43408203 C-242.99792767 250.81274107 -210.33862657 281.83501945 -169.71289062 296.09326172 C-127.50501122 310.41317494 -83.55487486 305.80929763 -43.81738281 286.27001953 C-27.80102423 278.12514301 -12.30323207 267.01925891 -0.65234375 253.28125 C1.01420356 251.36794739 2.75077191 249.58791283 4.5625 247.8125 C6.85576036 245.55452057 9.02678028 243.25253496 11.125 240.8125 C19.4562389 231.18240425 28.29692029 221.98784828 37.25 212.9375 C37.88550781 212.289021 38.52101563 211.64054199 39.17578125 210.97241211 C39.77132813 210.37565674 40.366875 209.77890137 40.98046875 209.1640625 C41.50406982 208.63635254 42.0276709 208.10864258 42.56713867 207.56494141 C45.34175728 205.24105676 48.1599945 205.15354206 51.625 205.125 C52.41003906 205.11082031 53.19507813 205.09664062 54.00390625 205.08203125 C56.0625 205.3125 56.0625 205.3125 58.0625 207.3125 C58.68029584 213.49703066 57.60155435 217.27581418 54.1875 222.5 C53.57902222 223.46764282 53.57902222 223.46764282 52.95825195 224.45483398 C41.83354055 241.82694126 27.94322789 258.17405213 11.85546875 271.0703125 C10.15186782 272.43795856 8.46273154 273.82421955 6.80078125 275.2421875 C-31.98772725 307.87056638 -85.81717997 323.14231614 -135.96484375 318.84765625 C-182.57734119 314.11213115 -224.79158957 290.70281241 -254.87890625 254.87109375 C-284.92949384 217.99904862 -298.48799823 172.90924914 -294.25 125.5625 C-290.28655713 87.30504205 -274.6597617 48.14557674 -248.9375 19.3125 C-248.14085937 18.41917969 -247.34421875 17.52585937 -246.5234375 16.60546875 C-245.01731507 14.93009152 -243.50402529 13.26110132 -241.98046875 11.6015625 C-240.56676084 10.01756091 -239.20587754 8.38540589 -237.890625 6.71875 C-235.60625865 3.90441066 -233.12322616 1.71598665 -230.3671875 -0.62109375 C-228.61990922 -2.10712302 -226.89879077 -3.62411388 -225.1953125 -5.16015625 C-159.4519531 -63.83618507 -64.73950618 -54.77057815 0 0 Z " fill="#43D4A0" transform="translate(382.9375,352.6875)"/>
<path d="M0 0 C1.53333984 0.81210937 1.53333984 0.81210937 3.09765625 1.640625 C17.20689021 9.46431866 29.44516414 19.83852026 41 31 C41.65097656 31.59941406 42.30195312 32.19882812 42.97265625 32.81640625 C68.13569124 56.55175131 83.42844643 90.86447442 91 124 C91.17934082 124.78181641 91.35868164 125.56363281 91.54345703 126.36914062 C100.80047291 169.1334285 91.12955182 213.94976894 71 252 C70.67773438 252.61262695 70.35546875 253.22525391 70.0234375 253.85644531 C62.90068262 267.25504214 53.81108781 278.63229129 43.36914062 289.56347656 C42.04194932 290.95598613 40.7316017 292.36448908 39.421875 293.7734375 C8.71131625 325.86321296 -36.19272369 342.48138651 -80 344 C-134.30460831 344.81133291 -171.62091262 320.36815753 -211.34960938 286.40771484 C-213.11938198 284.89817212 -214.89539278 283.39617027 -216.671875 281.89453125 C-222.11061753 277.28373377 -227.48442337 272.70522326 -232.4375 267.56640625 C-234.17704977 265.8225076 -236.00521083 264.22819814 -237.875 262.625 C-258.37987318 244.81188623 -258.37987318 244.81188623 -259.3359375 235.8515625 C-259 233 -259 233 -257.0625 230.0625 C-253.44294901 227.62484321 -251.70138644 227.2419236 -247.46484375 227.9609375 C-242.2227198 230.17077105 -238.77256717 234.88846673 -235 239 C-233.7924392 240.06663821 -232.56596061 241.11269736 -231.3125 242.125 C-228.94736138 244.08685263 -226.95350106 246.13814194 -224.9765625 248.48828125 C-220.71068689 253.41853759 -216.12956737 258.02111462 -211.51196289 262.6184082 C-210.06475615 264.06025221 -208.62297974 265.50737116 -207.18164062 266.95507812 C-202.47987954 271.65980988 -197.71210043 276.22463256 -192.66040039 280.5534668 C-190.55388142 282.38865646 -188.6173615 284.35618697 -186.6875 286.375 C-181.7757136 291.33742338 -176.50589505 295.71411623 -171 300 C-170.27941406 300.58394531 -169.55882812 301.16789062 -168.81640625 301.76953125 C-139.9515046 323.73978616 -98.46895863 331.02615677 -63.16015625 326.74609375 C-30.74167925 322.34754492 0.03069899 307.77321752 23.703125 285.15625 C26 283 26 283 28.359375 281.21875 C41.77358259 269.94764066 52.13070922 253.47277773 60 238 C60.52352051 236.98752197 60.52352051 236.98752197 61.05761719 235.95458984 C81.09041393 196.85832522 83.48878229 152.81027114 71 111 C57.22949568 68.65322524 28.71773263 32.56731105 -10.86230469 11.83398438 C-49.21729397 -7.6319636 -93.09259128 -10.4763073 -133.9375 2.5 C-157.26168941 10.38503201 -177.39729631 22.9473808 -195 40 C-196.2375 41.19496094 -196.2375 41.19496094 -197.5 42.4140625 C-200.89220129 45.74896309 -204.16095935 49.13227269 -207.25 52.75 C-210.48338967 56.52732438 -213.96700779 60.00682176 -217.5 63.5 C-220.97030433 66.93132856 -224.39990103 70.34042407 -227.5625 74.0625 C-230.59692129 77.61277291 -233.79530776 80.97750093 -237.0625 84.3125 C-237.55758057 84.8288501 -238.05266113 85.3452002 -238.56274414 85.87719727 C-242.85305373 90.20734392 -246.61888217 92.80157351 -252.75 93.3125 C-256 93 -256 93 -258 91 C-258 77.90742325 -248.17456981 68.21146214 -240 59 C-239.41476562 58.30390625 -238.82953125 57.6078125 -238.2265625 56.890625 C-229.2395671 46.21571676 -219.02703717 36.52414287 -208 28 C-206.73528809 26.99528113 -205.4709947 25.99003529 -204.20703125 24.984375 C-143.78773209 -22.63949259 -69.81344917 -37.68262649 0 0 Z " fill="#43D4A0" transform="translate(814,330)"/>
<path d="M0 0 C28.38386856 25.25191845 41.84845254 63.4665014 44.29516602 100.61206055 C46.22224847 143.33688864 37.00562233 190.56360867 10.45532227 225.1628418 C9.81208008 226.01233398 9.16883789 226.86182617 8.50610352 227.73706055 C-13.37696708 255.81101948 -40.84136514 274.77987483 -76.52514648 279.6237793 C-105.29119707 283.01592303 -133.50524007 276.18419676 -159.54467773 264.1628418 C-160.30635254 263.8127002 -161.06802734 263.46255859 -161.8527832 263.10180664 C-173.77461721 257.50724404 -183.67095322 250.6374588 -193.52905273 241.9387207 C-195.49671414 240.20510042 -197.48481354 238.49881813 -199.48217773 236.79956055 C-207.13954578 230.26501369 -214.58526817 223.51965515 -221.94311523 216.65112305 C-223.57348866 215.13606871 -225.21365622 213.63236614 -226.85717773 212.1315918 C-256.22457786 185.29385454 -256.22457786 185.29385454 -256.67749023 178.03393555 C-256.67491211 177.23084961 -256.67233398 176.42776367 -256.66967773 175.6003418 C-256.67354492 174.3918457 -256.67354492 174.3918457 -256.67749023 173.15893555 C-256.54467773 171.1628418 -256.54467773 171.1628418 -255.54467773 170.1628418 C-250.09358333 169.18444024 -246.58949217 171.42273732 -242.13842773 174.24487305 C-238.56503581 176.88724569 -235.55739187 179.9192714 -232.50170898 183.13549805 C-230.52753685 185.27299838 -230.52753685 185.27299838 -227.91967773 187.2253418 C-225.05717527 189.56054117 -222.82529882 192.21807957 -220.43139648 195.0222168 C-218.54561077 197.16178319 -216.57861816 199.16430846 -214.54467773 201.1628418 C-211.96831831 203.69486616 -209.55735859 206.27426169 -207.23217773 209.0378418 C-184.06520432 235.67726984 -146.51054225 255.19913944 -111.40405273 258.91674805 C-74.91896366 261.2432264 -41.91745562 250.98908115 -13.91186523 227.1159668 C12.22784254 204.09247258 29.08524755 170.60286637 33.45532227 136.1628418 C34.37334717 118.92803209 34.17184547 101.85863635 29.45532227 85.1628418 C29.27340332 84.49446289 29.09148437 83.82608398 28.90405273 83.13745117 C23.25128735 62.87034238 11.98521305 43.29700025 -2.54467773 28.1628418 C-3.63291086 26.8544015 -4.71642989 25.54202283 -5.79467773 24.2253418 C-26.30093032 0.84349977 -58.09833198 -13.38924038 -88.54467773 -16.8371582 C-125.86862152 -18.57880723 -163.04391254 -9.18049316 -191.54467773 16.1628418 C-199.37325985 23.50225076 -206.85044648 31.15098654 -213.86547852 39.26977539 C-216.46395085 42.19919593 -219.24483238 44.927618 -222.04467773 47.6628418 C-225.57571999 51.14532158 -229.03499533 54.61571305 -232.23217773 58.4128418 C-243.61029304 71.82072139 -243.61029304 71.82072139 -250.41967773 72.4128418 C-253.84001595 72.13921474 -255.06775514 71.44923188 -257.54467773 69.1628418 C-256.03158047 59.99901327 -246.31370747 51.16518001 -240.54467773 44.1628418 C-239.75319336 43.18444336 -238.96170898 42.20604492 -238.14624023 41.19799805 C-224.8021791 24.9828672 -209.60916869 9.44426246 -192.54467773 -2.8371582 C-191.46834441 -3.66253298 -190.39415117 -4.49070538 -189.32202148 -5.3215332 C-135.2848403 -46.49575868 -51.42920657 -44.41350675 0 0 Z " fill="#43D4A0" transform="translate(832.544677734375,369.837158203125)"/>
<path d="M0 0 C6.27650587 5.36984174 12.34456211 10.98033857 18.37890625 16.61938477 C20.98494669 19.0532127 23.64298753 21.42290319 26.30859375 23.79125977 C31.93792116 28.85057551 37.34270914 34.11623452 42.703125 39.45727539 C44.33020074 41.07459648 45.96768006 42.68089133 47.60546875 44.28735352 C65.27964918 61.78652222 65.27964918 61.78652222 65.95703125 69.57641602 C65.70703125 72.70141602 65.70703125 72.70141602 64.70703125 75.07641602 C62.22180075 77.0956658 60.19665804 77.57343414 57.00390625 77.39282227 C48.76270322 74.91205197 42.32464213 65.26592649 36.75390625 59.06860352 C32.68525394 54.54877927 28.50286149 50.13586092 24.33422852 45.70849609 C21.35563938 42.54054973 18.3886996 39.36499162 15.46875 36.14282227 C-10.85945785 7.09158812 -45.88079149 -12.0215636 -85.54296875 -14.23608398 C-122.02636508 -15.55980187 -154.87334626 -1.7597243 -181.4987793 22.91162109 C-187.46710526 28.63444017 -192.4912577 34.98650859 -197.29296875 41.70141602 C-197.68436035 42.24459473 -198.07575195 42.78777344 -198.47900391 43.34741211 C-220.37973906 74.22492921 -229.22959974 111.3571253 -223.1953125 148.63110352 C-216.97348066 184.62262592 -196.02280302 217.43272405 -166.33422852 238.76928711 C-152.52231175 248.22038462 -137.43914814 255.34920127 -121.29296875 259.70141602 C-120.09800781 260.03915039 -118.90304688 260.37688477 -117.671875 260.72485352 C-97.92700646 265.35820265 -75.70422076 264.32434675 -56.29296875 258.70141602 C-55.07996094 258.3855957 -53.86695313 258.06977539 -52.6171875 257.74438477 C-34.08272469 252.33596775 -17.0760775 241.9336224 -2.29296875 229.70141602 C-1.46539062 229.03239258 -0.6378125 228.36336914 0.21484375 227.67407227 C4.18923953 224.34192676 7.575466 220.68842139 10.92578125 216.73657227 C13.32204053 213.99874094 15.90318273 211.47754563 18.51953125 208.95141602 C21.06398389 206.33426473 23.43567789 203.59257022 25.82910156 200.83764648 C30.71824658 195.27602156 35.85224942 189.93215589 40.94775391 184.56030273 C42.46271776 182.95956241 43.96679601 181.34948856 45.46875 179.73657227 C46.22800781 178.9412207 46.98726563 178.14586914 47.76953125 177.32641602 C48.39988281 176.65868164 49.03023438 175.99094727 49.6796875 175.30297852 C54.21705869 171.7185427 59.09136405 171.37108265 64.70703125 171.70141602 C65.03703125 172.03141602 65.36703125 172.36141602 65.70703125 172.70141602 C65.39693473 187.27595257 50.06636996 200.2282769 40.86328125 210.32250977 C39.44966619 211.88209595 38.05303519 213.45728454 36.67578125 215.04907227 C25.13369001 228.29232993 11.89806248 239.41717228 -2.29296875 249.70141602 C-2.90043945 250.1496875 -3.50791016 250.59795898 -4.13378906 251.05981445 C-34.63209349 273.40493933 -73.06544305 284.2264064 -110.67822266 278.88134766 C-114.24865317 278.27880248 -117.77174346 277.54379061 -121.29296875 276.70141602 C-121.99147949 276.53512695 -122.68999023 276.36883789 -123.40966797 276.19750977 C-151.37313694 269.27236726 -175.57888623 254.41082121 -196.29296875 234.70141602 C-197.00066406 234.05817383 -197.70835937 233.41493164 -198.4375 232.75219727 C-225.14897674 207.67278631 -238.18478053 168.52436288 -239.578125 132.74047852 C-240.62159415 86.72721585 -224.70911282 44.28956608 -193.29296875 10.70141602 C-171.74976797 -11.12076147 -143.50054084 -24.68403126 -113.29296875 -29.29858398 C-112.11992187 -29.48163086 -110.946875 -29.66467773 -109.73828125 -29.85327148 C-71.44951719 -34.4418783 -29.90773949 -24.99585441 0 0 Z " fill="#43D4A0" transform="translate(356.29296875,366.298583984375)"/>
<path d="M0 0 C23.73524671 22.48602319 33.82909059 55.50750702 34.9765625 87.453125 C35.76169972 127.44423454 23.35538125 168.1893332 -4.16796875 197.91015625 C-24.38080982 217.82299226 -48.92718514 228.27443141 -77.2109375 228.484375 C-88.6692932 228.39205505 -99.29696535 227.27122121 -110.2734375 223.984375 C-111.0871582 223.74299805 -111.90087891 223.50162109 -112.73925781 223.25292969 C-131.88931065 217.40418132 -147.21895138 208.8901332 -162.27294922 195.72900391 C-164.16467334 194.07922839 -166.07489669 192.45512752 -167.99609375 190.83984375 C-175.42516943 184.57756936 -182.60151429 178.07074235 -189.703125 171.44140625 C-191.2484415 170.00756781 -192.80503073 168.58733177 -194.3671875 167.171875 C-219.35347739 144.53092643 -219.35347739 144.53092643 -222.3984375 135.734375 C-222.23051162 132.04000556 -220.88345697 129.59439447 -218.2734375 126.984375 C-214.67545165 126.38471069 -212.49270214 126.31306782 -209.265625 128.08984375 C-199.88590043 135.09867853 -191.56811393 144.12092263 -184.01171875 153.02734375 C-181.05862172 156.35206647 -177.84588241 159.41883742 -174.68359375 162.54296875 C-172.60154534 164.65201293 -170.63820668 166.79764902 -168.7109375 169.046875 C-164.78996008 173.59997261 -160.64070398 177.85770917 -156.2734375 181.984375 C-155.59410156 182.63148438 -154.91476562 183.27859375 -154.21484375 183.9453125 C-133.76023676 201.81119027 -104.27594593 210.6449525 -77.38232422 209.1484375 C-46.01415686 206.70812626 -21.09667386 190.87086859 -0.2734375 167.984375 C2.35370925 164.79291334 4.58353899 161.515312 6.7265625 157.984375 C7.38011719 156.9634375 8.03367187 155.9425 8.70703125 154.890625 C23.93455643 129.97805097 26.97136758 100.99834499 20.22265625 72.88525391 C12.75836914 44.04407786 -5.95573779 17.71301204 -31.2734375 1.984375 C-55.70897074 -12.2686674 -83.23304973 -17.21435653 -110.88671875 -10.26953125 C-141.56910438 -1.82502198 -166.00763079 17.87213547 -185.6484375 42.359375 C-189.42015873 47.04127393 -193.38536899 51.50516552 -197.4609375 55.921875 C-198.04343262 56.56108887 -198.62592773 57.20030273 -199.22607422 57.85888672 C-203.68431497 62.64200923 -208.14326718 67.24367743 -214.9609375 67.921875 C-215.70730469 68.01339844 -216.45367188 68.10492188 -217.22265625 68.19921875 C-219.2734375 67.984375 -219.2734375 67.984375 -221.04296875 66.7109375 C-222.2734375 64.984375 -222.2734375 64.984375 -222.2734375 61.421875 C-217.66696855 35.78385083 -185.66645748 15.3869932 -165.87402344 1.47338867 C-114.38688882 -34.14798657 -50.34807151 -44.63849639 0 0 Z " fill="#43D4A0" transform="translate(816.2734375,393.015625)"/>
<path d="M0 0 C0.64026123 0.32186279 1.28052246 0.64372559 1.94018555 0.9753418 C16.57516834 8.79669658 27.889839 20.91443774 39.42578125 32.58203125 C42.19530243 35.38289071 44.97551823 38.17277135 47.7578125 40.9609375 C49.54489794 42.75718881 51.33137767 44.55404299 53.1171875 46.3515625 C53.93710175 47.17572662 54.75701599 47.99989075 55.60177612 48.84902954 C60.36101097 53.66700897 64.90416256 58.61029759 69.3125 63.75 C70.11558594 64.64847656 70.91867187 65.54695313 71.74609375 66.47265625 C77.14192091 72.77304703 77.14192091 72.77304703 78 77.6875 C77.3125 80.75 77.3125 80.75 76.125 82.625 C73.6601809 84.15488771 72.24938192 84.68325268 69.3125 84.75 C64.11238859 82.16842811 60.30781363 79.16991433 56.3125 75 C55.52734009 74.19840454 55.52734009 74.19840454 54.72631836 73.38061523 C51.44692969 70.00763148 48.33124256 66.52635795 45.28515625 62.94140625 C42.0309774 59.32636796 38.5349765 55.95309016 35.07714844 52.53417969 C31.56865291 49.05000649 28.25511117 45.47505618 25.046875 41.7109375 C5.6812721 19.81559368 -18.23473508 4.88866924 -47.6875 1.75 C-79.92017305 0.12869655 -107.17734615 8.80033543 -131.6875 29.75 C-132.36167969 30.32105469 -133.03585938 30.89210938 -133.73046875 31.48046875 C-153.08410196 49.36304195 -166.62601402 78.38976493 -167.6875 104.75 C-167.7390625 105.80703125 -167.790625 106.8640625 -167.84375 107.953125 C-168.6118959 138.03883924 -157.51097803 167.46967386 -136.89086914 189.453125 C-128.5773347 198.10776412 -120.16438609 204.84893767 -109.6875 210.75 C-108.73101562 211.2965625 -107.77453125 211.843125 -106.7890625 212.40625 C-83.6846409 224.8130079 -56.70771376 226.59706954 -31.71923828 219.37988281 C-9.49701907 212.4905142 11.48957149 199.57757367 26.56640625 181.75 C28.3986704 179.65129923 30.3256769 177.70250178 32.3125 175.75 C34.78909621 173.31099918 37.13280857 170.84257578 39.375 168.1875 C58.42093301 146.17110038 58.42093301 146.17110038 68.3125 141.75 C73.59103011 141.37762845 73.59103011 141.37762845 76.25 142.75 C77.67214032 145.42697002 77.5121595 147.59849318 76.99291992 150.53808594 C74.2710573 159.38633689 66.4727789 165.99657464 60.04541016 172.29833984 C58.44039749 173.87215882 56.84633195 175.45642458 55.25390625 177.04296875 C49.7753425 182.48010649 44.20003673 187.75446497 38.3125 192.75 C37.19440326 193.7229144 36.07718995 194.69684515 34.9609375 195.671875 C15.85088013 212.2275749 -3.17366581 228.38158674 -27.625 235.9375 C-28.43557861 236.18806152 -29.24615723 236.43862305 -30.08129883 236.69677734 C-41.52593418 240.07111139 -52.58879128 241.11534476 -64.5 241.0625 C-65.49220551 241.05926727 -65.49220551 241.05926727 -66.50445557 241.05596924 C-96.95094734 240.8967755 -121.89984678 229.1784399 -143.24755859 207.60717773 C-169.61101405 180.16592819 -181.52040138 141.10507394 -180.875 103.55078125 C-179.46910085 75.0520339 -171.90624439 46.5728109 -152.6875 24.75 C-152.01203125 23.93144531 -151.3365625 23.11289062 -150.640625 22.26953125 C-132.40632764 0.80763016 -104.22490487 -11.25744651 -76.53173828 -14.03466797 C-48.91484881 -16.1254917 -24.61901415 -12.60295482 0 0 Z " fill="#43D4A0" transform="translate(325.6875,378.25)"/>
<path d="M0 0 C8.03461239 5.7173836 14.71777247 13.22251086 17 23 C17.87496187 23.00938567 18.74992374 23.01877134 19.65139961 23.02844143 C41.18149641 23.2595691 62.71156074 23.49354416 84.24159431 23.73049068 C94.65437566 23.84502241 105.06716522 23.95865841 115.47998047 24.07006836 C195.84634458 24.93090894 195.84634458 24.93090894 222.4921875 25.50390625 C223.35198338 25.52175611 224.21177925 25.53960598 225.09762955 25.55799675 C230.39976171 25.67095043 235.69985411 25.816115 241 26 C241.84930336 26.02877605 242.69860672 26.05755211 243.57364655 26.08720016 C246.24770918 26.1829377 248.92088228 26.29234248 251.59423828 26.40600586 C252.40176481 26.4349849 253.20929134 26.46396395 254.04128838 26.49382114 C259.53548571 26.74936609 264.67162553 27.64481878 270 29 C269.67 29.99 269.34 30.98 269 32 C268.39621615 32.01269582 267.79243231 32.02539164 267.17035198 32.03847218 C178.35361724 33.83284066 178.35361724 33.83284066 89.5625 36.5625 C87.95315637 36.62100533 86.3438119 36.67948763 84.73446655 36.73794556 C62.14169522 37.56462637 39.57124851 38.7186192 17 40 C16.6136438 40.90274658 16.6136438 40.90274658 16.21948242 41.82373047 C15.69898315 43.0208667 15.69898315 43.0208667 15.16796875 44.2421875 C14.82789795 45.02964355 14.48782715 45.81709961 14.13745117 46.62841797 C10.24947898 54.73482747 3.79802558 61.35429901 -4.4140625 65.1015625 C-14.71421613 68.60034484 -24.27534644 67.75887302 -34 63 C-43.3613655 57.52570668 -48.892846 49.29016295 -52 39 C-52 38.01 -52 37.02 -52 36 C-136.15 36.33 -220.3 36.66 -307 37 C-307 36.34 -307 35.68 -307 35 C-281.16354698 31.83104683 -255.32396641 28.83717778 -229.375 26.75 C-228.4506012 26.6735022 -227.52620239 26.59700439 -226.5737915 26.51818848 C-219.3873605 25.92948087 -212.19701731 25.43991234 -205 25 C-203.94910879 24.9356608 -203.94910879 24.9356608 -202.87698746 24.87002182 C-174.26480532 23.13720093 -145.72815258 22.71040367 -117.06860352 22.80438232 C-112.83889844 22.81534823 -108.60922487 22.814846 -104.37950802 22.81424427 C-100.23125832 22.81451787 -96.08302878 22.82002495 -91.93478584 22.82724571 C-89.9922863 22.83037571 -88.04978455 22.83238611 -86.10728264 22.83313942 C-74.36772937 22.84271975 -62.71095205 23.16402996 -51 24 C-50.78174561 22.58642212 -50.78174561 22.58642212 -50.55908203 21.14428711 C-49.18288323 13.40452101 -44.14234195 6.74850281 -38 2 C-26.07127666 -5.10569014 -12.60309108 -6.93730978 0 0 Z " fill="#43D4A0" transform="translate(518,461)"/>
</svg>
